<svg xmlns="http://www.w3.org/2000/svg" width="1280" height="280" viewBox="0 0 1280 280">
  <g id="_01c-ribbon" data-name="01c-ribbon" transform="translate(2296 5573)">
    <path id="パス_4364" data-name="パス 4364" d="M0,0H1280V280H0Z" transform="translate(-2296 -5573)" fill="rgba(0,0,0,0)"/>
    <path id="パス_5520" data-name="パス 5520" d="M.78-15.96c0,2.4.87,4.14,3.63,6.57C6.57-7.5,7.23-6.36,7.23-4.83c0,1.5-.66,2.04-1.71,2.04S3.81-3.33,3.81-4.83v-1.5H.69v1.29C.69-1.68,2.37.24,5.61.24s4.92-1.92,4.92-5.28c0-2.4-.87-4.14-3.63-6.57-2.16-1.89-2.82-3.03-2.82-4.56,0-1.5.6-2.07,1.65-2.07s1.65.57,1.65,2.07v.87H10.5v-.66c0-3.36-1.65-5.28-4.86-5.28S.78-19.32.78-15.96ZM19.74-21H14.91L11.55,0h3.03l.57-3.81H19.2L19.77,0H23.1Zm-2.61,3.72h.06L18.75-6.66H15.57Zm7.08,1.32c0,2.4.87,4.14,3.63,6.57C30-7.5,30.66-6.36,30.66-4.83c0,1.5-.66,2.04-1.71,2.04s-1.71-.54-1.71-2.04v-1.5H24.12v1.29c0,3.36,1.68,5.28,4.92,5.28s4.92-1.92,4.92-5.28c0-2.4-.87-4.14-3.63-6.57-2.16-1.89-2.82-3.03-2.82-4.56,0-1.5.6-2.07,1.65-2.07s1.65.57,1.65,2.07v.87h3.12v-.66c0-3.36-1.65-5.28-4.86-5.28S24.21-19.32,24.21-15.96ZM35.7-21V-5.01c0,3.36,1.68,5.28,4.92,5.28s4.92-1.92,4.92-5.28V-21H42.42V-4.8c0,1.5-.66,2.04-1.71,2.04S39-3.3,39-4.8V-21ZM55.32,0h3.39L54.12-11.64,58.71-21h-3.3l-4.26,9.09h-.06V-21h-3.3V0h3.3V-6.45l1.02-1.92Zm8.19-18h5.7v-3h-9V0h9V-3h-5.7V-9.15h4.53v-3H63.51Zm12.24-3V-5.01c0,3.36,1.68,5.28,4.92,5.28s4.92-1.92,4.92-5.28V-21H82.47V-4.8c0,1.5-.66,2.04-1.71,2.04S79.05-3.3,79.05-4.8V-21ZM94.29-7.83v3c0,1.5-.66,2.04-1.71,2.04s-1.71-.54-1.71-2.04V-16.17c0-1.5.66-2.07,1.71-2.07s1.71.57,1.71,2.07v2.25h3.12v-2.04c0-3.36-1.68-5.28-4.92-5.28s-4.92,1.92-4.92,5.28V-5.04c0,3.36,1.68,5.28,4.92,5.28s4.92-1.92,4.92-5.28V-7.83ZM102.72-9h3.75V0h3.36V-21h-3.36v9h-3.75v-9h-3.3V0h3.3Zm9.51,9h3.3V-21h-3.3Zm9-9h3.75V0h3.36V-21h-3.36v9h-3.75v-9h-3.3V0h3.3Zm16.83-12h-4.83L129.87,0h3.03l.57-3.81h4.05L138.09,0h3.33Zm-2.61,3.72h.06l1.56,10.62h-3.18Z" transform="translate(-2128 -5329)" fill="#888"/>
    <path id="パス_5521" data-name="パス 5521" d="M2.4,0H19.86V-6H9V-42H2.4ZM28.8-32.34c0-3,1.32-4.14,3.42-4.14s3.42,1.14,3.42,4.14V-9.66c0,3-1.32,4.14-3.42,4.14S28.8-6.66,28.8-9.66ZM22.2-10.08C22.2-3.36,25.74.48,32.22.48S42.24-3.36,42.24-10.08V-31.92c0-6.72-3.54-10.56-10.02-10.56S22.2-38.64,22.2-31.92Zm33.06,0C55.26-3.36,58.8.48,65.28.48A13.535,13.535,0,0,0,69.9-.3c.9,1.8,2.76,2.88,5.7,2.88h.9V-3.3h-.6c-1.08,0-1.56-.12-1.86-.9a12.361,12.361,0,0,0,1.26-5.88V-31.92c0-6.72-3.54-10.56-10.02-10.56S55.26-38.64,55.26-31.92Zm6.6-22.26c0-3,1.32-4.14,3.42-4.14s3.42,1.14,3.42,4.14V-9.66c0,3-1.32,4.14-3.42,4.14s-3.42-1.14-3.42-4.14ZM79.26-42v31.98C79.26-3.3,82.62.54,89.1.54s9.84-3.84,9.84-10.56V-42H92.7V-9.6c0,3-1.32,4.08-3.42,4.08S85.86-6.6,85.86-9.6V-42Zm30.78,6h11.4v-6h-18V0h18V-6h-11.4V-18.3h9.06v-6h-9.06ZM134.82,0h10.44c6.6,0,9.84-3.66,9.84-10.38V-31.62c0-6.72-3.24-10.38-9.84-10.38H134.82Zm10.32-36c2.1,0,3.36,1.08,3.36,4.08v21.84c0,3-1.26,4.08-3.36,4.08h-3.72V-36Zm20.76,0h11.4v-6h-18V0h18V-6H165.9V-18.3h9.06v-6H165.9Zm25.44-6h-9.96V0h10.38c6.6,0,10.02-3.48,10.02-9.96v-3.42c0-4.44-1.38-7.56-4.92-8.94v-.12c2.94-1.38,4.26-4.08,4.26-8.4v-1.5C201.12-38.82,198.18-42,191.34-42Zm-.42,23.1c3,0,4.26,1.2,4.26,5.1v3.66c0,3.12-1.2,4.14-3.42,4.14h-3.78V-18.9Zm.24-17.1c2.34,0,3.36,1.32,3.36,4.32v2.34c0,3.36-1.5,4.44-3.96,4.44h-2.58V-36Zm21.18,0h11.4v-6h-18V0h18V-6h-11.4V-18.3h9.06v-6h-9.06Zm36,36a12.369,12.369,0,0,1-.72-5.1v-6.48c0-4.38-1.08-7.5-4.38-8.88v-.12c2.94-1.38,4.32-4.14,4.32-8.46v-3.3c0-6.48-2.94-9.66-9.78-9.66h-9.96V0h6.6V-17.1h2.28c3,0,4.32,1.44,4.32,5.34v6.6c0,3.42.24,4.08.6,5.16ZM237.6-36c2.34,0,3.36,1.32,3.36,4.32v4.14c0,3.36-1.5,4.44-3.96,4.44h-2.58V-36ZM251.94,0h6.6V-42h-6.6Zm3.9-50.88-4.08,6.66h4.44l6.12-6.66ZM277.98-42h-9.66L261.6,0h6.06l1.14-7.62h8.1L278.04,0h6.66Zm-5.22,7.44h.12L276-13.32h-6.36Zm14.16,2.64c0,4.8,1.74,8.28,7.26,13.14,4.32,3.78,5.64,6.06,5.64,9.12,0,3-1.32,4.08-3.42,4.08s-3.42-1.08-3.42-4.08v-3h-6.24v2.58c0,6.72,3.36,10.56,9.84,10.56s9.84-3.84,9.84-10.56c0-4.8-1.74-8.28-7.26-13.14-4.32-3.78-5.64-6.06-5.64-9.12,0-3,1.2-4.14,3.3-4.14s3.3,1.14,3.3,4.14v1.74h6.24v-1.32c0-6.72-3.3-10.56-9.72-10.56S286.92-38.64,286.92-31.92Zm31.74,0c0,4.8,1.74,8.28,7.26,13.14,4.32,3.78,5.64,6.06,5.64,9.12,0,3-1.32,4.08-3.42,4.08s-3.42-1.08-3.42-4.08v-3h-6.24v2.58c0,6.72,3.36,10.56,9.84,10.56s9.84-3.84,9.84-10.56c0-4.8-1.74-8.28-7.26-13.14-4.32-3.78-5.64-6.06-5.64-9.12,0-3,1.2-4.14,3.3-4.14s3.3,1.14,3.3,4.14v1.74h6.24v-1.32c0-6.72-3.3-10.56-9.72-10.56S318.66-38.64,318.66-31.92ZM356.58-42h-9.66L340.2,0h6.06l1.14-7.62h8.1L356.64,0h6.66Zm-5.22,7.44h.12l3.12,21.24h-6.36ZM376.32-42h-9.96V0h10.38c6.6,0,10.02-3.48,10.02-9.96v-3.42c0-4.44-1.38-7.56-4.92-8.94v-.12c2.94-1.38,4.26-4.08,4.26-8.4v-1.5C386.1-38.82,383.16-42,376.32-42Zm-.42,23.1c3,0,4.26,1.2,4.26,5.1v3.66c0,3.12-1.2,4.14-3.42,4.14h-3.78V-18.9Zm.24-17.1c2.34,0,3.36,1.32,3.36,4.32v2.34c0,3.36-1.5,4.44-3.96,4.44h-2.58V-36Zm21.18,0h11.4v-6h-18V0h18V-6h-11.4V-18.3h9.06v-6h-9.06Zm36,36a12.369,12.369,0,0,1-.72-5.1v-6.48c0-4.38-1.08-7.5-4.38-8.88v-.12c2.94-1.38,4.32-4.14,4.32-8.46v-3.3c0-6.48-2.94-9.66-9.78-9.66H412.8V0h6.6V-17.1h2.28c3,0,4.32,1.44,4.32,5.34v6.6c0,3.42.24,4.08.6,5.16ZM422.58-36c2.34,0,3.36,1.32,3.36,4.32v4.14c0,3.36-1.5,4.44-3.96,4.44H419.4V-36ZM460.32,0h6.78V-42h-5.88v25.14h-.12L454.44-42h-8.28V0h5.94V-30.42h.12ZM477.9-32.34c0-3,1.32-4.14,3.42-4.14s3.42,1.14,3.42,4.14V-9.66c0,3-1.32,4.14-3.42,4.14s-3.42-1.14-3.42-4.14Zm-6.6,22.26c0,6.72,3.54,10.56,10.02,10.56s10.02-3.84,10.02-10.56V-31.92c0-6.72-3.54-10.56-10.02-10.56S471.3-38.64,471.3-31.92ZM511.5-36h11.4v-6h-18V0h18V-6H511.5V-18.3h9.06v-6H511.5Zm14.64,4.08c0,4.8,1.74,8.28,7.26,13.14,4.32,3.78,5.64,6.06,5.64,9.12,0,3-1.32,4.08-3.42,4.08s-3.42-1.08-3.42-4.08v-3h-6.24v2.58c0,6.72,3.36,10.56,9.84,10.56s9.84-3.84,9.84-10.56c0-4.8-1.74-8.28-7.26-13.14-4.32-3.78-5.64-6.06-5.64-9.12,0-3,1.2-4.14,3.3-4.14s3.3,1.14,3.3,4.14v1.74h6.24v-1.32c0-6.72-3.3-10.56-9.72-10.56S526.14-38.64,526.14-31.92Zm45.48,16.26v6c0,3-1.32,4.08-3.42,4.08s-3.42-1.08-3.42-4.08V-32.34c0-3,1.32-4.14,3.42-4.14s3.42,1.14,3.42,4.14v4.5h6.24v-4.08c0-6.72-3.36-10.56-9.84-10.56s-9.84,3.84-9.84,10.56v21.84c0,6.72,3.36,10.56,9.84,10.56s9.84-3.84,9.84-10.56v-5.58Zm16.32-16.68c0-3,1.32-4.14,3.42-4.14s3.42,1.14,3.42,4.14V-9.66c0,3-1.32,4.14-3.42,4.14s-3.42-1.14-3.42-4.14Zm-6.6,22.26c0,6.72,3.54,10.56,10.02,10.56s10.02-3.84,10.02-10.56V-31.92c0-6.72-3.54-10.56-10.02-10.56s-10.02,3.84-10.02,10.56Zm10.62-40.8-4.08,6.66h4.44l6.12-6.66ZM614.76-42h-9.18V0h5.76V-29.7h.12L616.26,0h6.24l4.44-30.12h.12V0h6.24V-42h-9.18l-4.44,29.82h-.12Zm29.4,9.66c0-3,1.32-4.14,3.42-4.14S651-35.34,651-32.34V-9.66c0,3-1.32,4.14-3.42,4.14s-3.42-1.14-3.42-4.14Zm-6.6,22.26c0,6.72,3.54,10.56,10.02,10.56S657.6-3.36,657.6-10.08V-31.92c0-6.72-3.54-10.56-10.02-10.56s-10.02,3.84-10.02,10.56ZM677.76-36h11.4v-6h-18V0h18V-6h-11.4V-18.3h9.06v-6h-9.06Zm14.64,4.08c0,4.8,1.74,8.28,7.26,13.14,4.32,3.78,5.64,6.06,5.64,9.12,0,3-1.32,4.08-3.42,4.08s-3.42-1.08-3.42-4.08v-3h-6.24v2.58c0,6.72,3.36,10.56,9.84,10.56s9.84-3.84,9.84-10.56c0-4.8-1.74-8.28-7.26-13.14C700.32-27,699-29.28,699-32.34c0-3,1.2-4.14,3.3-4.14s3.3,1.14,3.3,4.14v1.74h6.24v-1.32c0-6.72-3.3-10.56-9.72-10.56S692.4-38.64,692.4-31.92ZM731.58-36h11.4v-6h-18V0h18V-6h-11.4V-18.3h9.06v-6h-9.06ZM747.06,0h17.46V-6H753.66V-42h-6.6ZM790.8,0h6.78V-42H791.7v25.14h-.12L784.92-42h-8.28V0h5.94V-30.42h.12Zm26.16-42H807.3L800.58,0h6.06l1.14-7.62h8.1L817.02,0h6.66Zm-5.22,7.44h.12l3.12,21.24h-6.36ZM847.26,0a12.369,12.369,0,0,1-.72-5.1v-6.48c0-4.38-1.08-7.5-4.38-8.88v-.12c2.94-1.38,4.32-4.14,4.32-8.46v-3.3c0-6.48-2.94-9.66-9.78-9.66h-9.96V0h6.6V-17.1h2.28c3,0,4.32,1.44,4.32,5.34v6.6c0,3.42.24,4.08.6,5.16ZM836.52-36c2.34,0,3.36,1.32,3.36,4.32v4.14c0,3.36-1.5,4.44-3.96,4.44h-2.58V-36Zm14.04-6v31.98c0,6.72,3.36,10.56,9.84,10.56s9.84-3.84,9.84-10.56V-42H864V-9.6c0,3-1.32,4.08-3.42,4.08s-3.42-1.08-3.42-4.08V-42Zm22.26,6h6.9V0h6.6V-36h6.9v-6h-20.4Zm29.34,3.66c0-3,1.32-4.14,3.42-4.14S909-35.34,909-32.34V-9.66c0,3-1.32,4.14-3.42,4.14s-3.42-1.14-3.42-4.14Zm-6.6,22.26c0,6.72,3.54,10.56,10.02,10.56S915.6-3.36,915.6-10.08V-31.92c0-6.72-3.54-10.56-10.02-10.56s-10.02,3.84-10.02,10.56ZM17.04,12H7.38L.66,54H6.72l1.14-7.62h8.1L17.1,54h6.66Zm-5.22,7.44h.12l3.12,21.24H8.7Zm27.84,18.9v6c0,3-1.32,4.08-3.42,4.08s-3.42-1.08-3.42-4.08V21.66c0-3,1.32-4.14,3.42-4.14s3.42,1.14,3.42,4.14v4.5H45.9V22.08c0-6.72-3.36-10.56-9.84-10.56s-9.84,3.84-9.84,10.56V43.92c0,6.72,3.36,10.56,9.84,10.56s9.84-3.84,9.84-10.56V38.34ZM48,18h6.9V54h6.6V18h6.9V12H48Zm22.98-6V43.98c0,6.72,3.36,10.56,9.84,10.56s9.84-3.84,9.84-10.56V12H84.42V44.4c0,3-1.32,4.08-3.42,4.08s-3.42-1.08-3.42-4.08V12Zm38.82,0h-9.66L93.42,54h6.06l1.14-7.62h8.1L109.86,54h6.66Zm-5.22,7.44h.12l3.12,21.24h-6.36Zm15,34.56h17.46V48H126.18V12h-6.6Zm20.34-6.36V54h6.36V47.64Zm8.76,0V54h6.36V47.64Zm8.76,0V54h6.36V47.64Zm19.62-25.56c0,4.8,1.74,8.28,7.26,13.14,4.32,3.78,5.64,6.06,5.64,9.12,0,3-1.32,4.08-3.42,4.08s-3.42-1.08-3.42-4.08v-3h-6.24v2.58c0,6.72,3.36,10.56,9.84,10.56s9.84-3.84,9.84-10.56c0-4.8-1.74-8.28-7.26-13.14-4.32-3.78-5.64-6.06-5.64-9.12,0-3,1.2-4.14,3.3-4.14s3.3,1.14,3.3,4.14V23.4h6.24V22.08c0-6.72-3.3-10.56-9.72-10.56S177.06,15.36,177.06,22.08ZM200.34,54h6.6V12h-6.6Zm25.5,0h6.78V12h-5.88V37.14h-.12L219.96,12h-8.28V54h5.94V23.58h.12Zm17.58-32.34c0-3,1.32-4.14,3.42-4.14s3.42,1.14,3.42,4.14V44.34c0,3-1.32,4.14-3.42,4.14s-3.42-1.14-3.42-4.14Zm-6.6,22.26c0,6.72,3.54,10.56,10.02,10.56s10.02-3.84,10.02-10.56V22.08c0-6.72-3.54-10.56-10.02-10.56s-10.02,3.84-10.02,10.56Zm46.5-5.58v6c0,3-1.32,4.08-3.42,4.08s-3.42-1.08-3.42-4.08V21.66c0-3,1.32-4.14,3.42-4.14s3.42,1.14,3.42,4.14v4.5h6.24V22.08c0-6.72-3.36-10.56-9.84-10.56s-9.84,3.84-9.84,10.56V43.92c0,6.72,3.36,10.56,9.84,10.56s9.84-3.84,9.84-10.56V38.34Zm16.32-16.68c0-3,1.32-4.14,3.42-4.14s3.42,1.14,3.42,4.14V44.34c0,3-1.32,4.14-3.42,4.14s-3.42-1.14-3.42-4.14Zm-6.6,22.26c0,6.72,3.54,10.56,10.02,10.56s10.02-3.84,10.02-10.56V22.08c0-6.72-3.54-10.56-10.02-10.56s-10.02,3.84-10.02,10.56Zm10.62-40.8-4.08,6.66h4.44l6.12-6.66ZM326.46,12h-9.18V54h5.76V24.3h.12l4.8,29.7h6.24l4.44-30.12h.12V54H345V12h-9.18l-4.44,29.82h-.12Zm29.4,9.66c0-3,1.32-4.14,3.42-4.14s3.42,1.14,3.42,4.14V44.34c0,3-1.32,4.14-3.42,4.14s-3.42-1.14-3.42-4.14Zm-6.6,22.26c0,6.72,3.54,10.56,10.02,10.56s10.02-3.84,10.02-10.56V22.08c0-6.72-3.54-10.56-10.02-10.56s-10.02,3.84-10.02,10.56ZM389.46,18h10.86V12H382.86V54h6.6V36.66h8.52v-6h-8.52Zm13.74-6V43.98c0,6.72,3.36,10.56,9.84,10.56s9.84-3.84,9.84-10.56V12h-6.24V44.4c0,3-1.32,4.08-3.42,4.08s-3.42-1.08-3.42-4.08V12Zm30.78,6h11.4V12h-18V54h18V48h-11.4V35.7h9.06v-6h-9.06Zm31.38,0h11.4V12h-18V54h18V48h-11.4V35.7h9.06v-6h-9.06Zm15.48,36H498.3V48H487.44V12h-6.6Zm43.74,0h6.78V12h-5.88V37.14h-.12L518.7,12h-8.28V54h5.94V23.58h.12Zm26.16-42h-9.66l-6.72,42h6.06l1.14-7.62h8.1L550.8,54h6.66Zm-5.22,7.44h.12l3.12,21.24H542.4ZM581.04,54a12.369,12.369,0,0,1-.72-5.1V42.42c0-4.38-1.08-7.5-4.38-8.88v-.12c2.94-1.38,4.32-4.14,4.32-8.46v-3.3c0-6.48-2.94-9.66-9.78-9.66h-9.96V54h6.6V36.9h2.28c3,0,4.32,1.44,4.32,5.34v6.6c0,3.42.24,4.08.6,5.16ZM570.3,18c2.34,0,3.36,1.32,3.36,4.32v4.14c0,3.36-1.5,4.44-3.96,4.44h-2.58V18Zm14.04-6V43.98c0,6.72,3.36,10.56,9.84,10.56s9.84-3.84,9.84-10.56V12h-6.24V44.4c0,3-1.32,4.08-3.42,4.08s-3.42-1.08-3.42-4.08V12Zm22.26,6h6.9V54h6.6V18H627V12H606.6Zm29.34,3.66c0-3,1.32-4.14,3.42-4.14s3.42,1.14,3.42,4.14V44.34c0,3-1.32,4.14-3.42,4.14s-3.42-1.14-3.42-4.14Zm-6.6,22.26c0,6.72,3.54,10.56,10.02,10.56s10.02-3.84,10.02-10.56V22.08c0-6.72-3.54-10.56-10.02-10.56s-10.02,3.84-10.02,10.56ZM662.94,54h10.44c6.6,0,9.84-3.66,9.84-10.38V22.38c0-6.72-3.24-10.38-9.84-10.38H662.94Zm10.32-36c2.1,0,3.36,1.08,3.36,4.08V43.92c0,3-1.26,4.08-3.36,4.08h-3.72V18Zm20.76,0h11.4V12h-18V54h18V48h-11.4V35.7h9.06v-6h-9.06ZM725.4,36h7.5V54h6.72V12H732.9V30h-7.5V12h-6.6V54h6.6Zm33.66-24H749.4l-6.72,42h6.06l1.14-7.62h8.1L759.12,54h6.66Zm-5.22,7.44h.12l3.12,21.24h-6.36ZM768,22.08c0,4.8,1.74,8.28,7.26,13.14,4.32,3.78,5.64,6.06,5.64,9.12,0,3-1.32,4.08-3.42,4.08s-3.42-1.08-3.42-4.08v-3h-6.24v2.58c0,6.72,3.36,10.56,9.84,10.56s9.84-3.84,9.84-10.56c0-4.8-1.74-8.28-7.26-13.14-4.32-3.78-5.64-6.06-5.64-9.12,0-3,1.2-4.14,3.3-4.14s3.3,1.14,3.3,4.14V23.4h6.24V22.08c0-6.72-3.3-10.56-9.72-10.56S768,15.36,768,22.08ZM789.36,18h6.9V54h6.6V18h6.9V12h-20.4ZM825,12h-9.66l-6.72,42h6.06l1.14-7.62h8.1L825.06,54h6.66Zm-5.22,7.44h.12l3.12,21.24h-6.36ZM858.72,12h-9.66l-6.72,42h6.06l1.14-7.62h8.1L858.78,54h6.66Zm-5.22,7.44h.12l3.12,21.24h-6.36ZM875.1,36h7.5V54h6.72V12H882.6V30h-7.5V12h-6.6V54h6.6Zm25.08-14.34c0-3,1.32-4.14,3.42-4.14s3.42,1.14,3.42,4.14V44.34c0,3-1.32,4.14-3.42,4.14s-3.42-1.14-3.42-4.14Zm-6.6,22.26c0,6.72,3.54,10.56,10.02,10.56s10.02-3.84,10.02-10.56V22.08c0-6.72-3.54-10.56-10.02-10.56s-10.02,3.84-10.02,10.56ZM938.4,54a12.369,12.369,0,0,1-.72-5.1V42.42c0-4.38-1.08-7.5-4.38-8.88v-.12c2.94-1.38,4.32-4.14,4.32-8.46v-3.3c0-6.48-2.94-9.66-9.78-9.66h-9.96V54h6.6V36.9h2.28c3,0,4.32,1.44,4.32,5.34v6.6c0,3.42.24,4.08.6,5.16ZM927.66,18c2.34,0,3.36,1.32,3.36,4.32v4.14c0,3.36-1.5,4.44-3.96,4.44h-2.58V18Zm28.98-6h-9.66l-6.72,42h6.06l1.14-7.62h8.1L956.7,54h6.66Zm-5.22,7.44h.12l3.12,21.24H948.3ZM968.94,54l-1.74,6h2.7l2.88-6.66v-5.7h-6.36V54ZM8.52,75.3a10.334,10.334,0,0,1,.24,2.34c0,2.7-.78,4.74-3.36,8.22C2.16,90.18.96,93.42.96,97.92c0,6.72,3.3,10.56,9.72,10.56s9.72-3.84,9.72-10.56V93.78H14.16v4.56c0,3-1.2,4.14-3.3,4.14s-3.3-1.14-3.3-4.14c0-4.02.84-6.78,3.78-10.98,2.58-3.66,3.42-6.12,3.42-9.48a7.856,7.856,0,0,0-.36-2.58Zm6.18-2.94V66H8.34v6.36ZM38.1,108h6.78V66H39V91.14h-.12L32.22,66H23.94v42h5.94V77.58H30ZM55.68,75.66c0-3,1.32-4.14,3.42-4.14s3.42,1.14,3.42,4.14V98.34c0,3-1.32,4.14-3.42,4.14s-3.42-1.14-3.42-4.14Zm-6.6,22.26c0,6.72,3.54,10.56,10.02,10.56s10.02-3.84,10.02-10.56V76.08c0-6.72-3.54-10.56-10.02-10.56S49.08,69.36,49.08,76.08Zm46.5-5.58v6c0,3-1.32,4.08-3.42,4.08s-3.42-1.08-3.42-4.08V75.66c0-3,1.32-4.14,3.42-4.14s3.42,1.14,3.42,4.14v4.5h6.24V76.08c0-6.72-3.36-10.56-9.84-10.56s-9.84,3.84-9.84,10.56V97.92c0,6.72,3.36,10.56,9.84,10.56s9.84-3.84,9.84-10.56V92.34ZM126.36,108a12.369,12.369,0,0,1-.72-5.1V96.42c0-4.38-1.08-7.5-4.38-8.88v-.12c2.94-1.38,4.32-4.14,4.32-8.46v-3.3c0-6.48-2.94-9.66-9.78-9.66h-9.96v42h6.6V90.9h2.28c3,0,4.32,1.44,4.32,5.34v6.6c0,3.42.24,4.08.6,5.16ZM115.62,72c2.34,0,3.36,1.32,3.36,4.32v4.14c0,3.36-1.5,4.44-3.96,4.44h-2.58V72Zm20.94,0h11.4V66h-18v42h18v-6h-11.4V89.7h9.06v-6h-9.06Zm22.08,0h11.4V66h-18v42h18v-6h-11.4V89.7h9.06v-6h-9.06Zm14.64,4.08c0,4.8,1.74,8.28,7.26,13.14,4.32,3.78,5.64,6.06,5.64,9.12,0,3-1.32,4.08-3.42,4.08s-3.42-1.08-3.42-4.08v-3H173.1v2.58c0,6.72,3.36,10.56,9.84,10.56s9.84-3.84,9.84-10.56c0-4.8-1.74-8.28-7.26-13.14-4.32-3.78-5.64-6.06-5.64-9.12,0-3,1.2-4.14,3.3-4.14s3.3,1.14,3.3,4.14V77.4h6.24V76.08c0-6.72-3.3-10.56-9.72-10.56S173.28,69.36,173.28,76.08ZM207.24,98.7a10.333,10.333,0,0,1-.24-2.34c0-2.7.78-4.74,3.36-8.22,3.24-4.32,4.44-7.56,4.44-12.06,0-6.72-3.3-10.56-9.72-10.56s-9.72,3.84-9.72,10.56v4.14h6.24V75.66c0-3,1.2-4.14,3.3-4.14s3.3,1.14,3.3,4.14c0,4.02-.84,6.78-3.78,10.98-2.58,3.66-3.42,6.12-3.42,9.48a7.856,7.856,0,0,0,.36,2.58Zm-6.18,2.94V108h6.36v-6.36Z" transform="translate(-2128 -5475)" fill="#fff"/>
    <path id="パス_5522" data-name="パス 5522" d="M13.4-55.85l1.262,2.338a20.756,20.756,0,0,0-6.364,4.991q-2.06,2.616-2.06,4.36a1.034,1.034,0,0,0,1.15,1.188l.965-.074,1.15-.074A6.1,6.1,0,0,1,13.99-41.3a6.1,6.1,0,0,1,1.818,4.49,6.113,6.113,0,0,1-1.837,4.527,6.345,6.345,0,0,1-4.657,1.818,7.46,7.46,0,0,1-5.789-2.672A9.947,9.947,0,0,1,1.15-40a14.493,14.493,0,0,1,3.08-8.554A24.607,24.607,0,0,1,13.4-55.85Zm19.371.037,1.262,2.3a20.726,20.726,0,0,0-6.364,5.01q-2.022,2.6-2.022,4.342a1.034,1.034,0,0,0,1.15,1.188l.965-.074,1.113-.074a6.1,6.1,0,0,1,4.49,1.818,6.1,6.1,0,0,1,1.818,4.49,6.129,6.129,0,0,1-1.818,4.546,6.317,6.317,0,0,1-4.639,1.8A7.5,7.5,0,0,1,22.9-33.139,9.947,9.947,0,0,1,20.521-40a14.527,14.527,0,0,1,3.08-8.535A24.216,24.216,0,0,1,32.768-55.812Z" transform="translate(-2168 -5465)" fill="#fff"/>
    <path id="パス_5523" data-name="パス 5523" d="M22.6-30.689l-1.262-2.3A21.141,21.141,0,0,0,27.7-38.037q2.022-2.6,2.022-4.342a1.034,1.034,0,0,0-1.15-1.187l-.965.111-1.15.074a6.1,6.1,0,0,1-4.49-1.818,6.1,6.1,0,0,1-1.818-4.49,6.158,6.158,0,0,1,1.837-4.564,6.345,6.345,0,0,1,4.657-1.818A7.46,7.46,0,0,1,32.434-53.4a10,10,0,0,1,2.375,6.9,14.5,14.5,0,0,1-3.062,8.517A24.435,24.435,0,0,1,22.6-30.689Zm-19.408,0L1.93-32.99a21.586,21.586,0,0,0,6.383-5.028q2.041-2.579,2.041-4.36a1.05,1.05,0,0,0-1.187-1.187l-.965.111-1.113.074A6.1,6.1,0,0,1,2.6-45.2a6.1,6.1,0,0,1-1.818-4.49A6.19,6.19,0,0,1,2.6-54.254a6.283,6.283,0,0,1,4.639-1.818A7.5,7.5,0,0,1,13.063-53.4a10,10,0,0,1,2.375,6.9,14.447,14.447,0,0,1-3.08,8.517A24.607,24.607,0,0,1,3.191-30.689Z" transform="translate(-1915 -5328)" fill="#fff"/>
  </g>
</svg>
